<mxfile host="drawio-plugin" modified="2022-11-12T15:52:45.739Z" agent="5.0 (Macintosh; Intel Mac OS X 10_15_7) AppleWebKit/537.36 (KHTML, like Gecko) Chrome/97.0.4692.45 Safari/537.36" etag="3Le27C-wKZBZMO73iHno" version="15.5.4" type="embed"><diagram id="23iRSUPoRavnBvh4doch" name="Page-1"><mxGraphModel dx="1064" dy="1013" grid="1" gridSize="10" guides="1" tooltips="1" connect="1" arrows="1" fold="1" page="1" pageScale="1" pageWidth="827" pageHeight="1169" math="0" shadow="0"><root><mxCell id="0"/><mxCell id="1" parent="0"/><mxCell id="19" value="&lt;br&gt;&lt;br&gt;&lt;br&gt;&lt;br&gt;&lt;br&gt;&lt;br&gt;&lt;br&gt;&lt;br&gt;&lt;br&gt;&lt;br&gt;&lt;br&gt;&lt;br&gt;&lt;br&gt;&lt;br&gt;&lt;br&gt;&lt;br&gt;&lt;br&gt;&lt;br&gt;&lt;br&gt;&lt;br&gt;&lt;br&gt;&lt;br&gt;&lt;br&gt;&lt;br&gt;&lt;br&gt;&lt;br&gt;&lt;br&gt;&lt;br&gt;&lt;br&gt;&lt;br&gt;&lt;br&gt;&lt;br&gt;&lt;br&gt;&lt;br&gt;&lt;br&gt;&lt;br&gt;&lt;br&gt;&lt;br&gt;&lt;br&gt;&lt;br&gt;&lt;br&gt;&lt;br&gt;&lt;b&gt;&lt;br&gt;Cluster&lt;/b&gt;" style="rounded=0;whiteSpace=wrap;html=1;fillColor=none;dashed=1;" vertex="1" parent="1"><mxGeometry x="460" y="40" width="1050" height="650" as="geometry"/></mxCell><mxCell id="4" value="URL&lt;br&gt;&amp;nbsp;http://hello.demo.192.168.180.166.sslip.io:32323" style="edgeStyle=orthogonalEdgeStyle;rounded=0;orthogonalLoop=1;jettySize=auto;html=1;entryX=0;entryY=0.5;entryDx=0;entryDy=0;" edge="1" parent="1" source="2" target="3"><mxGeometry relative="1" as="geometry"/></mxCell><mxCell id="2" value="User" style="shape=umlActor;verticalLabelPosition=bottom;verticalAlign=top;html=1;outlineConnect=0;" vertex="1" parent="1"><mxGeometry x="150" y="310" width="30" height="60" as="geometry"/></mxCell><mxCell id="16" value="reads" style="edgeStyle=orthogonalEdgeStyle;rounded=0;orthogonalLoop=1;jettySize=auto;html=1;entryX=0;entryY=0.5;entryDx=0;entryDy=0;" edge="1" parent="1" source="3" target="5"><mxGeometry relative="1" as="geometry"/></mxCell><mxCell id="17" value="sends traffic to" style="edgeStyle=orthogonalEdgeStyle;rounded=0;orthogonalLoop=1;jettySize=auto;html=1;entryX=0.5;entryY=1;entryDx=0;entryDy=0;" edge="1" parent="1" source="3" target="8"><mxGeometry x="-0.9678" relative="1" as="geometry"><Array as="points"><mxPoint x="545" y="650"/><mxPoint x="1341" y="650"/></Array><mxPoint as="offset"/></mxGeometry></mxCell><mxCell id="3" value="istio-ingressgateway" style="rounded=0;whiteSpace=wrap;html=1;fillColor=#fff2cc;strokeColor=#d6b656;" vertex="1" parent="1"><mxGeometry x="470" y="310" width="150" height="60" as="geometry"/></mxCell><mxCell id="10" style="edgeStyle=orthogonalEdgeStyle;rounded=0;orthogonalLoop=1;jettySize=auto;html=1;entryX=0;entryY=0.5;entryDx=0;entryDy=0;" edge="1" parent="1" source="5" target="7"><mxGeometry relative="1" as="geometry"><Array as="points"><mxPoint x="690" y="400"/></Array></mxGeometry></mxCell><mxCell id="11" value="references" style="edgeStyle=orthogonalEdgeStyle;rounded=0;orthogonalLoop=1;jettySize=auto;html=1;entryX=0;entryY=0.5;entryDx=0;entryDy=0;" edge="1" parent="1" source="5" target="6"><mxGeometry x="-0.8065" relative="1" as="geometry"><Array as="points"><mxPoint x="690" y="570"/></Array><mxPoint as="offset"/></mxGeometry></mxCell><mxCell id="5" value="&lt;b&gt;VirtualService&lt;/b&gt;&lt;br&gt;Namespace: demo&lt;br&gt;- hello.demo&lt;br&gt;- hello.demo.192.168.180.166.sslip.io&lt;br&gt;- hello.demo.svc&lt;br&gt;- hello.demo.svc.cluster.local" style="rounded=0;whiteSpace=wrap;html=1;fillColor=#e1d5e7;strokeColor=#9673a6;" vertex="1" parent="1"><mxGeometry x="660" y="190" width="310" height="90" as="geometry"/></mxCell><mxCell id="12" value="&lt;b&gt;Points for hosts&lt;br&gt;&lt;/b&gt;hello.demo*" style="edgeStyle=orthogonalEdgeStyle;rounded=0;orthogonalLoop=1;jettySize=auto;html=1;" edge="1" parent="1" source="6" target="8"><mxGeometry relative="1" as="geometry"/></mxCell><mxCell id="6" value="&lt;b&gt;Gateway&lt;/b&gt;&lt;br&gt;Namespace: knative-serving&lt;br&gt;Name: knative-local-gateway&lt;br&gt;&lt;br&gt;Selector:&lt;br&gt;- Istio: ingressgateway&lt;br&gt;- Hosts: *&lt;br&gt;Port: 8081" style="rounded=0;whiteSpace=wrap;html=1;fillColor=#d5e8d4;strokeColor=#82b366;" vertex="1" parent="1"><mxGeometry x="710" y="510" width="270" height="120" as="geometry"/></mxCell><mxCell id="13" value="&lt;b&gt;Points to for host&lt;/b&gt;&lt;br&gt;&amp;nbsp;hello.demo.192.168.180.166.sslip.io" style="edgeStyle=orthogonalEdgeStyle;rounded=0;orthogonalLoop=1;jettySize=auto;html=1;entryX=0;entryY=0.5;entryDx=0;entryDy=0;" edge="1" parent="1" source="7" target="8"><mxGeometry relative="1" as="geometry"/></mxCell><mxCell id="7" value="&lt;b&gt;Gateway&lt;/b&gt;&lt;br&gt;Namespace: knative-serving&lt;br&gt;Name: knative-ingress-gateway&lt;br&gt;&lt;br&gt;Selector: &lt;br&gt;- istio: ingressgateway&lt;br&gt;- Hosts: *&lt;br&gt;- Port: 80" style="rounded=0;whiteSpace=wrap;html=1;fillColor=#d5e8d4;strokeColor=#82b366;" vertex="1" parent="1"><mxGeometry x="710" y="327.5" width="270" height="145" as="geometry"/></mxCell><mxCell id="8" value="&lt;b&gt;Service&lt;br&gt;&lt;/b&gt;hello-0001.demo.svc.cluster.local" style="rounded=0;whiteSpace=wrap;html=1;fillColor=#e1d5e7;strokeColor=#9673a6;" vertex="1" parent="1"><mxGeometry x="1241" y="450" width="199" height="90" as="geometry"/></mxCell><mxCell id="21" value="URL&lt;br&gt;http://hello.demo.svc.cluster.local&lt;br&gt;&lt;br&gt;CNAME to&lt;br&gt;&lt;b&gt;knative-local-gateway&lt;/b&gt;.istio-system.svc.cluster.local" style="edgeStyle=orthogonalEdgeStyle;rounded=0;orthogonalLoop=1;jettySize=auto;html=1;entryX=0.5;entryY=0;entryDx=0;entryDy=0;" edge="1" parent="1" source="20" target="3"><mxGeometry x="-0.4138" relative="1" as="geometry"><mxPoint as="offset"/></mxGeometry></mxCell><mxCell id="20" value="Pod" style="ellipse;whiteSpace=wrap;html=1;aspect=fixed;fillColor=#f8cecc;strokeColor=#b85450;" vertex="1" parent="1"><mxGeometry x="910" y="70" width="50" height="50" as="geometry"/></mxCell></root></mxGraphModel></diagram></mxfile>